<svg width="47" height="46" viewBox="0 0 47 46" fill="none" xmlns="http://www.w3.org/2000/svg">
<circle cx="23.5" cy="23" r="23" fill="#EAEAEA"/>
<mask id="mask0_1_6389" style="mask-type:alpha" maskUnits="userSpaceOnUse" x="0" y="0" width="47" height="46">
<circle cx="23.5" cy="23" r="23" fill="#F3F5F6"/>
</mask>
<g mask="url(#mask0_1_6389)">
<ellipse cx="23.5005" cy="40.4793" rx="17.48" ry="10.12" fill="#C5C5C5"/>
</g>
<circle cx="23.5" cy="20.7642" r="13.2505" fill="#C5C5C5" stroke="#EAEAEA"/>
<path d="M20.7199 26.8671C20.1398 26.3549 19.2543 26.4102 18.7423 26.9904C18.2302 27.5704 18.2854 28.4559 18.8656 28.9679C20.0997 30.0573 21.7241 30.7197 23.4999 30.7197C25.2757 30.7197 26.9001 30.0573 28.1343 28.9679C28.7143 28.4559 28.7695 27.5704 28.2576 26.9904C27.7454 26.4102 26.8601 26.3549 26.2799 26.8671C25.538 27.5218 24.5668 27.9175 23.4999 27.9175C22.4329 27.9175 21.4618 27.5218 20.7199 26.8671Z" fill="#8C8C8C"/>
</svg>
