<svg width="51" height="51" viewBox="0 0 51 51" fill="none" xmlns="http://www.w3.org/2000/svg">
<path d="M37.8629 0.833984H12.9123C6.02595 0.833984 0.437012 6.43398 0.437012 13.334V38.334C0.437012 45.234 6.02595 50.834 12.9123 50.834H37.8629C44.7493 50.834 50.3382 45.234 50.3382 38.334V13.334C50.3382 6.43398 44.7493 0.833984 37.8629 0.833984Z" fill="#02AFA7"/>
<path d="M39.3944 32.1532H37.6183V29.9277C37.6183 28.4374 36.4658 27.2253 35.0487 27.2253H18.4974C17.9684 27.2253 17.5527 27.6624 17.5527 28.2188C17.5527 28.7752 17.9684 29.2123 18.4974 29.2123H35.0487C35.4266 29.2123 35.7289 29.5303 35.7289 29.9277V32.1334H14.5863C14.5863 32.1334 14.5485 31.5174 14.5485 31.2193C14.5485 24.5228 19.461 19.0584 25.5072 19.0584C28.8703 19.0584 32.0067 20.7474 34.104 23.6684C34.4252 24.1055 35.0109 24.2049 35.4266 23.8671C35.8423 23.5293 35.9367 22.9133 35.6155 22.4761C33.2916 19.2372 29.8906 17.3097 26.1873 17.0911V15.2233C26.5085 14.9451 26.7164 14.5278 26.7164 14.0509C26.7164 13.1965 26.0551 12.501 25.2426 12.501C24.4302 12.501 23.7689 13.1965 23.7689 14.0509C23.7689 14.5278 23.9767 14.9451 24.2979 15.2233V17.0117H10.8075C10.2785 17.0117 9.86279 17.4488 9.86279 18.0052C9.86279 18.5616 10.2785 18.9987 10.8075 18.9987H19.0831C17.8361 19.7936 16.7214 20.807 15.7956 21.9992H11.1476C10.6186 21.9992 10.2029 22.4364 10.2029 22.9928C10.2029 23.5492 10.6186 23.9863 11.1476 23.9863H14.473C13.9439 24.96 13.5094 26.0131 13.2071 27.1259H11.2799C10.7697 27.1259 10.3729 27.5631 10.3729 28.1195C10.3729 28.6758 10.7886 29.113 11.2799 29.113H12.8103C12.7158 29.8085 12.6969 32.1532 12.6969 32.1532H10.9964C10.4674 32.1532 10.0517 32.5904 10.0517 33.1468C10.0517 33.7032 10.4674 34.1403 10.9964 34.1403H13.7361H15.3799C15.1532 34.5973 15.0398 35.1339 15.0398 35.6704C15.0398 37.5978 16.5324 39.1676 18.3652 39.1676C20.1979 39.1676 21.6905 37.5978 21.6905 35.6704C21.6905 35.114 21.5583 34.5973 21.3504 34.1403H29.1726C28.9459 34.5973 28.8325 35.1339 28.8325 35.6704C28.8325 37.5978 30.3252 39.1676 32.1579 39.1676C33.9906 39.1676 35.4833 37.5978 35.4833 35.6704C35.4833 35.114 35.351 34.5973 35.1432 34.1403H39.4133C39.9423 34.1403 40.358 33.7032 40.358 33.1468C40.358 32.5904 39.9045 32.1532 39.3944 32.1532ZM18.3652 37.1806C17.5716 37.1806 16.9292 36.5049 16.9292 35.6704C16.9292 34.8358 17.5716 34.1602 18.3652 34.1602C19.1587 34.1602 19.8011 34.8358 19.8011 35.6704C19.8011 36.5049 19.1587 37.1806 18.3652 37.1806ZM32.139 37.1806C31.3455 37.1806 30.7031 36.5049 30.7031 35.6704C30.7031 34.8358 31.3455 34.1602 32.139 34.1602C32.9326 34.1602 33.575 34.8358 33.575 35.6704C33.575 36.5049 32.9326 37.1806 32.139 37.1806Z" fill="white"/>
</svg>
