<svg width="54" height="34" viewBox="0 0 54 34" fill="none" xmlns="http://www.w3.org/2000/svg">
<path d="M16.219 27.7478V34H0.815216V0.819336H16.0438V7.07152H5.72262V14.1279H15.148V20.3023H5.72262V27.7478H16.219Z" fill="#02C9C0"/>
<path d="M39.9665 10.1851V33.3659H35.4751V30.6268C34.219 32.7065 32.3539 33.9999 29.8036 33.9999C25.179 33.9999 21.3536 28.6739 21.3536 21.7755C21.3536 14.877 25.198 9.55103 29.8227 9.55103C32.3539 9.55103 34.238 10.8445 35.4941 12.9242V10.1851H39.9665ZM35.4941 21.7755C35.4941 17.8951 33.4387 15.2321 30.6601 15.2321C27.9195 15.2321 25.8641 17.8697 25.8641 21.7755C25.8641 25.6559 27.9195 28.3189 30.6601 28.3189C33.4387 28.3189 35.4941 25.6812 35.4941 21.7755Z" fill="#02C9C0"/>
<path d="M49.5562 16.4737V26.0617C49.5562 28.5597 50.8964 28.5849 53.4449 28.4083V33.8078C47.1965 34.7414 45.1011 32.2939 45.1011 26.0617V6.10357L49.5562 4.31213V10.7714H53.4449V16.499H49.5562V16.4737Z" fill="#02C9C0"/>
</svg>
