<svg width="118" height="28" viewBox="0 0 118 28" fill="none" xmlns="http://www.w3.org/2000/svg">
<path d="M17.6128 22.4467V27.4681H0.815216V0.819336H17.4216V5.84072H6.16665V11.508H16.4448V16.4669H6.16665V22.4467H17.6128Z" fill="#02C9C0"/>
<path d="M43.509 8.34138V26.9589H38.6111V24.759C37.2414 26.4293 35.2075 27.4681 32.4266 27.4681C27.3834 27.4681 23.2119 23.1906 23.2119 17.6501C23.2119 12.1097 27.4042 7.83215 32.4473 7.83215C35.2075 7.83215 37.2621 8.87098 38.6319 10.5413V8.34138H43.509ZM38.6319 17.6501C38.6319 14.5336 36.3905 12.3949 33.3605 12.3949C30.3719 12.3949 28.1306 14.5133 28.1306 17.6501C28.1306 20.7666 30.3719 22.9054 33.3605 22.9054C36.3905 22.9054 38.6319 20.787 38.6319 17.6501Z" fill="#02C9C0"/>
<path d="M53.9663 13.392V21.0925C53.9663 23.0987 55.4279 23.119 58.2069 22.9771V27.3137C51.3931 28.0635 49.1082 26.0979 49.1082 21.0925V5.06329L53.9663 3.62451V8.81223H58.2069V13.4123H53.9663V13.392Z" fill="#02C9C0"/>
<path d="M91.802 15.6949V27.4681H86.9466V16.0504C86.9466 13.7919 85.8102 12.4118 83.7854 12.4118C81.6367 12.4118 80.273 13.8547 80.273 16.7196V27.4472H75.3763V16.0504C75.3763 13.7919 74.24 12.4118 72.2152 12.4118C70.149 12.4118 68.6614 13.8547 68.6614 16.7196V27.4472H63.806V8.35494H68.6821V10.3834C69.7358 8.77317 71.5127 7.83215 73.93 7.83215C76.2648 7.83215 78.0003 8.83591 79.054 10.5925C80.211 8.85682 82.1119 7.83215 84.6739 7.83215C88.9714 7.83215 91.802 10.9271 91.802 15.6949Z" fill="#02C9C0"/>
<path d="M110.882 21.7788C112.412 20.7231 113.188 19.2208 113.229 17.881L117.698 17.4953C117.718 20.5607 116.269 23.3419 113.331 25.3923C108.208 28.9653 102.494 27.727 99.3101 23.1998C96.1264 18.6727 96.9223 12.9073 101.718 9.55759C106.249 6.41095 111.943 7.73051 115.086 12.1967C115.494 12.7651 115.8 13.3336 116.065 13.9223L104.555 21.9412C106.514 23.545 108.8 23.2201 110.882 21.7788ZM110.147 13.496C108.126 11.6486 105.841 11.9125 104.208 13.0697C102.106 14.5313 101.453 16.6629 102.371 18.9163L110.147 13.496Z" fill="#02C9C0"/>
</svg>
